<svg xmlns="http://www.w3.org/2000/svg" viewBox="0 0 360 640">
  <!-- App header -->
  <rect x="0" y="0" width="360" height="60" fill="#0d6efd" />
  <text x="180" y="35" font-family="Arial" font-size="20" font-weight="bold" fill="white" text-anchor="middle">FieldSync Dashboard</text>
  <circle cx="30" cy="30" r="15" fill="white" opacity="0.8" />
  <text x="30" y="35" font-family="Arial" font-size="14" font-weight="bold" fill="#0d6efd" text-anchor="middle">≡</text>
  
  <!-- Quick stats cards -->
  <rect x="15" y="75" width="155" height="90" rx="10" fill="white" stroke="#ddd" />
  <text x="92" y="100" font-family="Arial" font-size="14" font-weight="bold" fill="#333" text-anchor="middle">Active Projects</text>
  <text x="92" y="135" font-family="Arial" font-size="26" font-weight="bold" fill="#0d6efd" text-anchor="middle">4</text>
  
  <rect x="185" y="75" width="155" height="90" rx="10" fill="white" stroke="#ddd" />
  <text x="262" y="100" font-family="Arial" font-size="14" font-weight="bold" fill="#333" text-anchor="middle">Team Members</text>
  <text x="262" y="135" font-family="Arial" font-size="26" font-weight="bold" fill="#0d6efd" text-anchor="middle">23</text>
  
  <!-- Weather card -->
  <rect x="15" y="180" width="325" height="100" rx="10" fill="white" stroke="#ddd" />
  <text x="40" y="205" font-family="Arial" font-size="14" font-weight="bold" fill="#333">Today's Weather</text>
  <circle cx="65" cy="240" r="25" fill="#FFD700" />
  <text x="120" y="230" font-family="Arial" font-size="18" font-weight="bold" fill="#333">72°F</text>
  <text x="120" y="250" font-family="Arial" font-size="14" fill="#666">Sunny, Wind 5mph</text>
  
  <!-- Recent activity -->
  <text x="15" y="310" font-family="Arial" font-size="18" font-weight="bold" fill="#333">Recent Activity</text>
  
  <rect x="15" y="325" width="325" height="70" rx="10" fill="white" stroke="#ddd" />
  <text x="40" y="350" font-family="Arial" font-size="14" font-weight="bold" fill="#333">Daily Report Submitted</text>
  <text x="40" y="370" font-family="Arial" font-size="12" fill="#666">Downtown Tower Project - 30m ago</text>
  <circle cx="300" cy="360" r="12" fill="#f8f9fa" stroke="#ddd" />
  <text x="300" y="365" font-family="Arial" font-size="18" fill="#666" text-anchor="middle">›</text>
  
  <rect x="15" y="405" width="325" height="70" rx="10" fill="white" stroke="#ddd" />
  <text x="40" y="430" font-family="Arial" font-size="14" font-weight="bold" fill="#333">Equipment Requested</text>
  <text x="40" y="450" font-family="Arial" font-size="12" fill="#666">Riverside Project - 1h ago</text>
  <circle cx="300" cy="440" r="12" fill="#f8f9fa" stroke="#ddd" />
  <text x="300" y="445" font-family="Arial" font-size="18" fill="#666" text-anchor="middle">›</text>
  
  <rect x="15" y="485" width="325" height="70" rx="10" fill="white" stroke="#ddd" />
  <text x="40" y="510" font-family="Arial" font-size="14" font-weight="bold" fill="#333">Document Approval Needed</text>
  <text x="40" y="530" font-family="Arial" font-size="12" fill="#666">Parkside Complex - 3h ago</text>
  <circle cx="300" cy="520" r="12" fill="#f8f9fa" stroke="#ddd" />
  <text x="300" y="525" font-family="Arial" font-size="18" fill="#666" text-anchor="middle">›</text>
  
  <!-- Bottom navigation -->
  <rect x="0" y="600" width="360" height="40" fill="white" stroke="#eee" stroke-width="1" />
  <circle cx="60" cy="620" r="10" fill="#0d6efd" />
  <text x="60" y="625" font-family="Arial" font-size="14" fill="white" text-anchor="middle">H</text>
  <circle cx="150" cy="620" r="12" fill="#f8f9fa" stroke="#ddd" />
  <text x="150" y="625" font-family="Arial" font-size="14" fill="#666" text-anchor="middle">+</text>
  <circle cx="240" cy="620" r="12" fill="#f8f9fa" stroke="#ddd" />
  <text x="240" y="625" font-family="Arial" font-size="14" fill="#666" text-anchor="middle">≡</text>
  <circle cx="330" cy="620" r="12" fill="#f8f9fa" stroke="#ddd" />
  <text x="330" y="625" font-family="Arial" font-size="14" fill="#666" text-anchor="middle">👤</text>
</svg>
