<svg xmlns="http://www.w3.org/2000/svg" viewBox="0 0 1200 800">
  <!-- Background -->
  <rect width="1200" height="800" fill="#f5f7fa" />
  
  <!-- Left Sidebar -->
  <rect x="0" y="0" width="220" height="800" fill="#2c3e50" />
  
  <!-- App Logo -->
  <rect x="30" y="20" width="160" height="60" rx="5" fill="#3498db" />
  <text x="55" y="57" font-family="Arial" font-size="22" font-weight="bold" fill="white">InventoryPro</text>
  
  <!-- Navigation Menu -->
  <g>
    <!-- Dashboard -->
    <rect x="20" y="120" width="180" height="40" rx="5" fill="#34495e" />
    <text x="60" y="145" font-family="Arial" font-size="14" fill="white">Dashboard</text>
    <rect x="30" y="132" width="16" height="16" fill="none" stroke="white" stroke-width="2" />
    
    <!-- Inventory -->
    <rect x="20" y="170" width="180" height="40" rx="5" fill="#34495e" />
    <text x="60" y="195" font-family="Arial" font-size="14" fill="white">Inventory</text>
    <rect x="30" y="182" width="16" height="16" fill="none" stroke="white" stroke-width="2" />
    
    <!-- Orders -->
    <rect x="20" y="220" width="180" height="40" rx="5" fill="#3498db" />
    <text x="60" y="245" font-family="Arial" font-size="14" fill="white">Orders</text>
    <rect x="30" y="232" width="16" height="16" fill="none" stroke="white" stroke-width="2" />
    
    <!-- Suppliers -->
    <rect x="20" y="270" width="180" height="40" rx="5" fill="#34495e" />
    <text x="60" y="295" font-family="Arial" font-size="14" fill="white">Suppliers</text>
    <rect x="30" y="282" width="16" height="16" fill="none" stroke="white" stroke-width="2" />
    
    <!-- Reports -->
    <rect x="20" y="320" width="180" height="40" rx="5" fill="#34495e" />
    <text x="60" y="345" font-family="Arial" font-size="14" fill="white">Reports</text>
    <rect x="30" y="332" width="16" height="16" fill="none" stroke="white" stroke-width="2" />
    
    <!-- Settings -->
    <rect x="20" y="370" width="180" height="40" rx="5" fill="#34495e" />
    <text x="60" y="395" font-family="Arial" font-size="14" fill="white">Settings</text>
    <rect x="30" y="382" width="16" height="16" fill="none" stroke="white" stroke-width="2" />
  </g>
  
  <!-- Top Bar -->
  <rect x="220" y="0" width="980" height="60" fill="white" />
  <rect x="220" y="59" width="980" height="1" fill="#e0e0e0" />
  
  <!-- Page Title -->
  <text x="250" y="37" font-family="Arial" font-size="20" font-weight="bold" fill="#2c3e50">Orders Management</text>
  
  <!-- Search Bar -->
  <rect x="600" y="15" width="300" height="30" rx="5" fill="#f5f7fa" stroke="#e0e0e0" stroke-width="1" />
  <text x="620" y="35" font-family="Arial" font-size="14" fill="#9aa3ac">Search orders, customers...</text>
  <circle cx="610" cy="30" r="7" fill="none" stroke="#9aa3ac" stroke-width="2" />
  
  <!-- User Profile -->
  <circle cx="1120" cy="30" r="20" fill="#3498db" />
  <text x="1120" y="35" font-family="Arial" font-size="14" fill="white" text-anchor="middle">JW</text>
  
  <!-- Main Content Area -->
  <rect x="240" y="80" width="940" height="60" rx="5" fill="white" stroke="#e0e0e0" stroke-width="1" />
  
  <!-- Filter/Actions Bar -->
  <text x="260" y="115" font-family="Arial" font-size="14" fill="#2c3e50">Status:</text>
  <rect x="320" y="95" width="120" height="30" rx="3" fill="white" stroke="#e0e0e0" stroke-width="1" />
  <text x="330" y="115" font-family="Arial" font-size="14" fill="#2c3e50">All Orders</text>
  
  <text x="460" y="115" font-family="Arial" font-size="14" fill="#2c3e50">Date Range:</text>
  <rect x="540" y="95" width="160" height="30" rx="3" fill="white" stroke="#e0e0e0" stroke-width="1" />
  <text x="550" y="115" font-family="Arial" font-size="14" fill="#2c3e50">Last 30 days</text>
  
  <rect x="970" y="95" width="190" height="30" rx="3" fill="#27ae60" />
  <text x="1025" y="115" font-family="Arial" font-size="14" fill="white" text-anchor="middle">+ Create New Order</text>
  
  <!-- Order Tabs -->
  <rect x="240" y="150" width="940" height="40" fill="#f5f7fa" />
  <rect x="240" y="150" width="180" height="40" fill="#3498db" />
  <text x="330" y="175" font-family="Arial" font-size="14" fill="white" text-anchor="middle">All Orders (35)</text>
  <rect x="420" y="150" width="180" height="40" fill="#f5f7fa" />
  <text x="510" y="175" font-family="Arial" font-size="14" fill="#2c3e50" text-anchor="middle">Pending (12)</text>
  <rect x="600" y="150" width="180" height="40" fill="#f5f7fa" />
  <text x="690" y="175" font-family="Arial" font-size="14" fill="#2c3e50" text-anchor="middle">Processing (8)</text>
  <rect x="780" y="150" width="180" height="40" fill="#f5f7fa" />
  <text x="870" y="175" font-family="Arial" font-size="14" fill="#2c3e50" text-anchor="middle">Shipped (9)</text>
  <rect x="960" y="150" width="180" height="40" fill="#f5f7fa" />
  <text x="1050" y="175" font-family="Arial" font-size="14" fill="#2c3e50" text-anchor="middle">Delivered (6)</text>
  
  <!-- Order Table Header -->
  <rect x="240" y="200" width="940" height="40" fill="#f5f7fa" />
  <rect x="240" y="200" width="120" height="40" fill="#f5f7fa" />
  <text x="270" y="225" font-family="Arial" font-size="14" font-weight="bold" fill="#2c3e50">Order ID</text>
  
  <rect x="360" y="200" width="180" height="40" fill="#f5f7fa" />
  <text x="370" y="225" font-family="Arial" font-size="14" font-weight="bold" fill="#2c3e50">Customer</text>
  
  <rect x="540" y="200" width="120" height="40" fill="#f5f7fa" />
  <text x="550" y="225" font-family="Arial" font-size="14" font-weight="bold" fill="#2c3e50">Date</text>
  
  <rect x="660" y="200" width="100" height="40" fill="#f5f7fa" />
  <text x="670" y="225" font-family="Arial" font-size="14" font-weight="bold" fill="#2c3e50">Items</text>
  
  <rect x="760" y="200" width="120" height="40" fill="#f5f7fa" />
  <text x="770" y="225" font-family="Arial" font-size="14" font-weight="bold" fill="#2c3e50">Total</text>
  
  <rect x="880" y="200" width="140" height="40" fill="#f5f7fa" />
  <text x="890" y="225" font-family="Arial" font-size="14" font-weight="bold" fill="#2c3e50">Status</text>
  
  <rect x="1020" y="200" width="160" height="40" fill="#f5f7fa" />
  <text x="1085" y="225" font-family="Arial" font-size="14" font-weight="bold" fill="#2c3e50" text-anchor="middle">Actions</text>
  
  <!-- Order Table Rows -->
  <!-- Row 1 -->
  <rect x="240" y="240" width="940" height="70" fill="white" stroke="#e0e0e0" stroke-width="1" />
  <text x="270" y="275" font-family="Arial" font-size="14" fill="#2c3e50">ORD-7845</text>
  <text x="370" y="265" font-family="Arial" font-size="14" fill="#2c3e50">Sarah Johnson</text>
  <text x="370" y="285" font-family="Arial" font-size="12" fill="#7f8c8d">sarah.j@example.com</text>
  <text x="550" y="275" font-family="Arial" font-size="14" fill="#2c3e50">Mar 18, 2024</text>
  <text x="670" y="275" font-family="Arial" font-size="14" fill="#2c3e50">5</text>
  <text x="770" y="275" font-family="Arial" font-size="14" fill="#2c3e50">$289.95</text>
  <rect x="890" y="265" width="110" height="25" rx="12" fill="#f39c12" fill-opacity="0.2" />
  <text x="945" y="281" font-family="Arial" font-size="12" fill="#f39c12" text-anchor="middle">Processing</text>
  <rect x="1040" y="260" width="40" height="30" rx="3" fill="#3498db" />
  <text x="1060" y="280" font-family="Arial" font-size="14" fill="white" text-anchor="middle">V</text>
  <rect x="1090" y="260" width="40" height="30" rx="3" fill="#7f8c8d" />
  <text x="1110" y="280" font-family="Arial" font-size="14" fill="white" text-anchor="middle">P</text>
  
  <!-- Row 2 -->
  <rect x="240" y="310" width="940" height="70" fill="white" stroke="#e0e0e0" stroke-width="1" />
  <text x="270" y="345" font-family="Arial" font-size="14" fill="#2c3e50">ORD-7844</text>
  <text x="370" y="335" font-family="Arial" font-size="14" fill="#2c3e50">Michael Brown</text>
  <text x="370" y="355" font-family="Arial" font-size="12" fill="#7f8c8d">mike.b@example.com</text>
  <text x="550" y="345" font-family="Arial" font-size="14" fill="#2c3e50">Mar 17, 2024</text>
  <text x="670" y="345" font-family="Arial" font-size="14" fill="#2c3e50">2</text>
  <text x="770" y="345" font-family="Arial" font-size="14" fill="#2c3e50">$149.98</text>
  <rect x="890" y="335" width="110" height="25" rx="12" fill="#3498db" fill-opacity="0.2" />
  <text x="945" y="351" font-family="Arial" font-size="12" fill="#3498db" text-anchor="middle">Shipped</text>
  <rect x="1040" y="330" width="40" height="30" rx="3" fill="#3498db" />
  <text x="1060" y="350" font-family="Arial" font-size="14" fill="white" text-anchor="middle">V</text>
  <rect x="1090" y="330" width="40" height="30" rx="3" fill="#7f8c8d" />
  <text x="1110" y="350" font-family="Arial" font-size="14" fill="white" text-anchor="middle">P</text>
  
  <!-- Row 3 -->
  <rect x="240" y="380" width="940" height="70" fill="white" stroke="#e0e0e0" stroke-width="1" />
  <text x="270" y="415" font-family="Arial" font-size="14" fill="#2c3e50">ORD-7843</text>
  <text x="370" y="405" font-family="Arial" font-size="14" fill="#2c3e50">Emma Wilson</text>
  <text x="370" y="425" font-family="Arial" font-size="12" fill="#7f8c8d">emma.w@example.com</text>
  <text x="550" y="415" font-family="Arial" font-size="14" fill="#2c3e50">Mar 16, 2024</text>
  <text x="670" y="415" font-family="Arial" font-size="14" fill="#2c3e50">3</text>
  <text x="770" y="415" font-family="Arial" font-size="14" fill="#2c3e50">$234.97</text>
  <rect x="890" y="405" width="110" height="25" rx="12" fill="#9b59b6" fill-opacity="0.2" />
  <text x="945" y="421" font-family="Arial" font-size="12" fill="#9b59b6" text-anchor="middle">Pending</text>
  <rect x="1040" y="400" width="40" height="30" rx="3" fill="#3498db" />
  <text x="1060" y="420" font-family="Arial" font-size="14" fill="white" text-anchor="middle">V</text>
  <rect x="1090" y="400" width="40" height="30" rx="3" fill="#7f8c8d" />
  <text x="1110" y="420" font-family="Arial" font-size="14" fill="white" text-anchor="middle">P</text>
  
  <!-- Row 4 -->
  <rect x="240" y="450" width="940" height="70" fill="white" stroke="#e0e0e0" stroke-width="1" />
  <text x="270" y="485" font-family="Arial" font-size="14" fill="#2c3e50">ORD-7842</text>
  <text x="370" y="475" font-family="Arial" font-size="14" fill="#2c3e50">Robert Davis</text>
  <text x="370" y="495" font-family="Arial" font-size="12" fill="#7f8c8d">robert.d@example.com</text>
  <text x="550" y="485" font-family="Arial" font-size="14" fill="#2c3e50">Mar 15, 2024</text>
  <text x="670" y="485" font-family="Arial" font-size="14" fill="#2c3e50">1</text>
  <text x="770" y="485" font-family="Arial" font-size="14" fill="#2c3e50">$89.99</text>
  <rect x="890" y="475" width="110" height="25" rx="12" fill="#27ae60" fill-opacity="0.2" />
  <text x="945" y="491" font-family="Arial" font-size="12" fill="#27ae60" text-anchor="middle">Delivered</text>
  <rect x="1040" y="470" width="40" height="30" rx="3" fill="#3498db" />
  <text x="1060" y="490" font-family="Arial" font-size="14" fill="white" text-anchor="middle">V</text>
  <rect x="1090" y="470" width="40" height="30" rx="3" fill="#7f8c8d" />
  <text x="1110" y="490" font-family="Arial" font-size="14" fill="white" text-anchor="middle">P</text>
  
  <!-- Row 5 -->
  <rect x="240" y="520" width="940" height="70" fill="white" stroke="#e0e0e0" stroke-width="1" />
  <text x="270" y="555" font-family="Arial" font-size="14" fill="#2c3e50">ORD-7841</text>
  <text x="370" y="545" font-family="Arial" font-size="14" fill="#2c3e50">Jennifer Smith</text>
  <text x="370" y="565" font-family="Arial" font-size="12" fill="#7f8c8d">jennifer.s@example.com</text>
  <text x="550" y="555" font-family="Arial" font-size="14" fill="#2c3e50">Mar 14, 2024</text>
  <text x="670" y="555" font-family="Arial" font-size="14" fill="#2c3e50">4</text>
  <text x="770" y="555" font-family="Arial" font-size="14" fill="#2c3e50">$317.96</text>
  <rect x="890" y="545" width="110" height="25" rx="12" fill="#27ae60" fill-opacity="0.2" />
  <text x="945" y="561" font-family="Arial" font-size="12" fill="#27ae60" text-anchor="middle">Delivered</text>
  <rect x="1040" y="540" width="40" height="30" rx="3" fill="#3498db" />
  <text x="1060" y="560" font-family="Arial" font-size="14" fill="white" text-anchor="middle">V</text>
  <rect x="1090" y="540" width="40" height="30" rx="3" fill="#7f8c8d" />
  <text x="1110" y="560" font-family="Arial" font-size="14" fill="white" text-anchor="middle">P</text>
  
  <!-- Pagination -->
  <rect x="240" y="610" width="940" height="50" fill="white" />
  <text x="260" y="640" font-family="Arial" font-size="14" fill="#2c3e50">Showing 1-5 of 35 orders</text>
  <rect x="880" y="620" width="30" height="30" rx="3" fill="#3498db" />
  <text x="895" y="640" font-family="Arial" font-size="14" fill="white" text-anchor="middle">1</text>
  <rect x="920" y="620" width="30" height="30" rx="3" fill="#f5f7fa" stroke="#e0e0e0" stroke-width="1" />
  <text x="935" y="640" font-family="Arial" font-size="14" fill="#2c3e50" text-anchor="middle">2</text>
  <rect x="960" y="620" width="30" height="30" rx="3" fill="#f5f7fa" stroke="#e0e0e0" stroke-width="1" />
  <text x="975" y="640" font-family="Arial" font-size="14" fill="#2c3e50" text-anchor="middle">3</text>
  <rect x="1000" y="620" width="30" height="30" rx="3" fill="#f5f7fa" stroke="#e0e0e0" stroke-width="1" />
  <text x="1015" y="640" font-family="Arial" font-size="14" fill="#2c3e50" text-anchor="middle">4</text>
  <rect x="1040" y="620" width="80" height="30" rx="3" fill="#f5f7fa" stroke="#e0e0e0" stroke-width="1" />
  <text x="1080" y="640" font-family="Arial" font-size="14" fill="#2c3e50" text-anchor="middle">Next →</text>
  
  <!-- Order Summary Section -->
  <rect x="240" y="680" width="450" height="100" rx="5" fill="white" stroke="#e0e0e0" stroke-width="1" />
  <text x="260" y="710" font-family="Arial" font-size="16" font-weight="bold" fill="#2c3e50">Order Summary</text>
  <text x="260" y="740" font-family="Arial" font-size="14" fill="#2c3e50">Total Orders: 35</text>
  <text x="260" y="765" font-family="Arial" font-size="14" fill="#2c3e50">Total Revenue: $4,872.64</text>
  <text x="450" y="740" font-family="Arial" font-size="14" fill="#2c3e50">Avg. Order Value: $139.22</text>
  <text x="450" y="765" font-family="Arial" font-size="14" fill="#2c3e50">Avg. Items per Order: 2.4</text>
  
  <!-- Latest Activity -->
  <rect x="710" y="680" width="470" height="100" rx="5" fill="white" stroke="#e0e0e0" stroke-width="1" />
  <text x="730" y="710" font-family="Arial" font-size="16" font-weight="bold" fill="#2c3e50">Latest Activity</text>
  <circle cx="740" cy="735" r="5" fill="#3498db" />
  <text x="760" y="740" font-family="Arial" font-size="12" fill="#2c3e50">Order #ORD-7845 status updated to Processing</text>
  <circle cx="740" cy="755" r="5" fill="#27ae60" />
  <text x="760" y="760" font-family="Arial" font-size="12" fill="#2c3e50">Order #ORD-7842 marked as Delivered</text>
  <circle cx="740" cy="775" r="5" fill="#9b59b6" />
  <text x="760" y="780" font-family="Arial" font-size="12" fill="#2c3e50">New order #ORD-7845 received from Sarah Johnson</text>
</svg>
