<svg xmlns="http://www.w3.org/2000/svg" viewBox="0 0 1200 800">
  <!-- Background -->
  <rect width="1200" height="800" fill="#f5f7fa" />
  
  <!-- Left Sidebar -->
  <rect x="0" y="0" width="220" height="800" fill="#2c3e50" />
  
  <!-- App Logo -->
  <rect x="30" y="20" width="160" height="60" rx="5" fill="#3498db" />
  <text x="55" y="57" font-family="Arial" font-size="22" font-weight="bold" fill="white">InventoryPro</text>
  
  <!-- Navigation Menu -->
  <g>
    <!-- Dashboard -->
    <rect x="20" y="120" width="180" height="40" rx="5" fill="#3498db" />
    <text x="60" y="145" font-family="Arial" font-size="14" fill="white">Dashboard</text>
    <rect x="30" y="132" width="16" height="16" fill="none" stroke="white" stroke-width="2" />
    
    <!-- Inventory -->
    <rect x="20" y="170" width="180" height="40" rx="5" fill="#34495e" />
    <text x="60" y="195" font-family="Arial" font-size="14" fill="white">Inventory</text>
    <rect x="30" y="182" width="16" height="16" fill="none" stroke="white" stroke-width="2" />
    
    <!-- Orders -->
    <rect x="20" y="220" width="180" height="40" rx="5" fill="#34495e" />
    <text x="60" y="245" font-family="Arial" font-size="14" fill="white">Orders</text>
    <rect x="30" y="232" width="16" height="16" fill="none" stroke="white" stroke-width="2" />
    
    <!-- Suppliers -->
    <rect x="20" y="270" width="180" height="40" rx="5" fill="#34495e" />
    <text x="60" y="295" font-family="Arial" font-size="14" fill="white">Suppliers</text>
    <rect x="30" y="282" width="16" height="16" fill="none" stroke="white" stroke-width="2" />
    
    <!-- Reports -->
    <rect x="20" y="320" width="180" height="40" rx="5" fill="#34495e" />
    <text x="60" y="345" font-family="Arial" font-size="14" fill="white">Reports</text>
    <rect x="30" y="332" width="16" height="16" fill="none" stroke="white" stroke-width="2" />
    
    <!-- Settings -->
    <rect x="20" y="370" width="180" height="40" rx="5" fill="#34495e" />
    <text x="60" y="395" font-family="Arial" font-size="14" fill="white">Settings</text>
    <rect x="30" y="382" width="16" height="16" fill="none" stroke="white" stroke-width="2" />
  </g>
  
  <!-- Top Bar -->
  <rect x="220" y="0" width="980" height="60" fill="white" />
  <rect x="220" y="59" width="980" height="1" fill="#e0e0e0" />
  
  <!-- Page Title -->
  <text x="250" y="37" font-family="Arial" font-size="20" font-weight="bold" fill="#2c3e50">Dashboard</text>
  
  <!-- Date Range Selector -->
  <rect x="600" y="15" width="200" height="30" rx="5" fill="#f5f7fa" stroke="#e0e0e0" stroke-width="1" />
  <text x="620" y="35" font-family="Arial" font-size="14" fill="#2c3e50">Last 30 Days</text>
  <text x="770" y="35" font-family="Arial" font-size="14" fill="#7f8c8d">▼</text>
  
  <!-- User Profile -->
  <circle cx="1120" cy="30" r="20" fill="#3498db" />
  <text x="1120" y="35" font-family="Arial" font-size="14" fill="white" text-anchor="middle">JW</text>
  
  <!-- Main KPI Cards -->
  <rect x="240" y="80" width="220" height="120" rx="5" fill="white" stroke="#e0e0e0" stroke-width="1" />
  <text x="260" y="110" font-family="Arial" font-size="14" fill="#7f8c8d">Total Revenue</text>
  <text x="260" y="145" font-family="Arial" font-size="26" font-weight="bold" fill="#2c3e50">$4,872.64</text>
  <text x="260" y="170" font-family="Arial" font-size="14" fill="#27ae60">▲ 12.4%</text>
  
  <rect x="480" y="80" width="220" height="120" rx="5" fill="white" stroke="#e0e0e0" stroke-width="1" />
  <text x="500" y="110" font-family="Arial" font-size="14" fill="#7f8c8d">Total Orders</text>
  <text x="500" y="145" font-family="Arial" font-size="26" font-weight="bold" fill="#2c3e50">35</text>
  <text x="500" y="170" font-family="Arial" font-size="14" fill="#27ae60">▲ 8.2%</text>
  
  <rect x="720" y="80" width="220" height="120" rx="5" fill="white" stroke="#e0e0e0" stroke-width="1" />
  <text x="740" y="110" font-family="Arial" font-size="14" fill="#7f8c8d">Inventory Value</text>
  <text x="740" y="145" font-family="Arial" font-size="26" font-weight="bold" fill="#2c3e50">$18,452.87</text>
  <text x="740" y="170" font-family="Arial" font-size="14" fill="#27ae60">▲ 5.7%</text>
  
  <rect x="960" y="80" width="220" height="120" rx="5" fill="white" stroke="#e0e0e0" stroke-width="1" />
  <text x="980" y="110" font-family="Arial" font-size="14" fill="#7f8c8d">Low Stock Items</text>
  <text x="980" y="145" font-family="Arial" font-size="26" font-weight="bold" fill="#e74c3c">15</text>
  <text x="980" y="170" font-family="Arial" font-size="14" fill="#e74c3c">▲ 3 items</text>
  
  <!-- Sales Trend Chart -->
  <rect x="240" y="220" width="700" height="300" rx="5" fill="white" stroke="#e0e0e0" stroke-width="1" />
  <text x="260" y="250" font-family="Arial" font-size="16" font-weight="bold" fill="#2c3e50">Sales Trend</text>
  
  <!-- Chart Container -->
  <rect x="260" y="270" width="660" height="220" fill="#f9f9f9" stroke="#e0e0e0" stroke-width="1" />
  
  <!-- Y-axis -->
  <line x1="290" y1="270" x2="290" y2="490" stroke="#e0e0e0" stroke-width="1" />
  <text x="280" y="280" font-family="Arial" font-size="10" fill="#7f8c8d" text-anchor="end">$5k</text>
  <text x="280" y="325" font-family="Arial" font-size="10" fill="#7f8c8d" text-anchor="end">$4k</text>
  <text x="280" y="370" font-family="Arial" font-size="10" fill="#7f8c8d" text-anchor="end">$3k</text>
  <text x="280" y="415" font-family="Arial" font-size="10" fill="#7f8c8d" text-anchor="end">$2k</text>
  <text x="280" y="460" font-family="Arial" font-size="10" fill="#7f8c8d" text-anchor="end">$1k</text>
  
  <!-- X-axis -->
  <line x1="290" y1="490" x2="920" y2="490" stroke="#e0e0e0" stroke-width="1" />
  <text x="320" y="505" font-family="Arial" font-size="10" fill="#7f8c8d">Jan</text>
  <text x="370" y="505" font-family="Arial" font-size="10" fill="#7f8c8d">Feb</text>
  <text x="420" y="505" font-family="Arial" font-size="10" fill="#7f8c8d">Mar</text>
  <text x="470" y="505" font-family="Arial" font-size="10" fill="#7f8c8d">Apr</text>
  <text x="520" y="505" font-family="Arial" font-size="10" fill="#7f8c8d">May</text>
  <text x="570" y="505" font-family="Arial" font-size="10" fill="#7f8c8d">Jun</text>
  <text x="620" y="505" font-family="Arial" font-size="10" fill="#7f8c8d">Jul</text>
  <text x="670" y="505" font-family="Arial" font-size="10" fill="#7f8c8d">Aug</text>
  <text x="720" y="505" font-family="Arial" font-size="10" fill="#7f8c8d">Sep</text>
  <text x="770" y="505" font-family="Arial" font-size="10" fill="#7f8c8d">Oct</text>
  <text x="820" y="505" font-family="Arial" font-size="10" fill="#7f8c8d">Nov</text>
  <text x="870" y="505" font-family="Arial" font-size="10" fill="#7f8c8d">Dec</text>
  
  <!-- Grid lines -->
  <line x1="290" y1="325" x2="920" y2="325" stroke="#e0e0e0" stroke-width="1" stroke-dasharray="5,5" />
  <line x1="290" y1="370" x2="920" y2="370" stroke="#e0e0e0" stroke-width="1" stroke-dasharray="5,5" />
  <line x1="290" y1="415" x2="920" y2="415" stroke="#e0e0e0" stroke-width="1" stroke-dasharray="5,5" />
  <line x1="290" y1="460" x2="920" y2="460" stroke="#e0e0e0" stroke-width="1" stroke-dasharray="5,5" />
  
  <!-- Chart data - line -->
  <path d="M320,420 L370,400 L420,410 L470,380 L520,350 L570,370 L620,340 L670,310 L720,330 L770,300 L820,290 L870,280" 
        fill="none" stroke="#3498db" stroke-width="3" />
  
  <!-- Chart data - area -->
  <path d="M320,420 L370,400 L420,410 L470,380 L520,350 L570,370 L620,340 L670,310 L720,330 L770,300 L820,290 L870,280 L870,490 L320,490 Z" 
        fill="#3498db" fill-opacity="0.1" />
  
  <!-- Data points -->
  <circle cx="320" cy="420" r="4" fill="#3498db" />
  <circle cx="370" cy="400" r="4" fill="#3498db" />
  <circle cx="420" cy="410" r="4" fill="#3498db" />
  <circle cx="470" cy="380" r="4" fill="#3498db" />
  <circle cx="520" cy="350" r="4" fill="#3498db" />
  <circle cx="570" cy="370" r="4" fill="#3498db" />
  <circle cx="620" cy="340" r="4" fill="#3498db" />
  <circle cx="670" cy="310" r="4" fill="#3498db" />
  <circle cx="720" cy="330" r="4" fill="#3498db" />
  <circle cx="770" cy="300" r="4" fill="#3498db" />
  <circle cx="820" cy="290" r="4" fill="#3498db" />
  <circle cx="870" cy="280" r="4" fill="#3498db" />
  
  <!-- Chart legend -->
  <rect x="780" y="240" width="12" height="12" fill="#3498db" />
  <text x="800" y="250" font-family="Arial" font-size="12" fill="#7f8c8d">Monthly Sales</text>
  
  <!-- Right sidebar - Top Products -->
  <rect x="960" y="220" width="220" height="300" rx="5" fill="white" stroke="#e0e0e0" stroke-width="1" />
  <text x="980" y="250" font-family="Arial" font-size="16" font-weight="bold" fill="#2c3e50">Top Products</text>
  
  <!-- Product 1 -->
  <rect x="980" y="270" width="180" height="40" fill="#f9f9f9" rx="3" />
  <text x="990" y="290" font-family="Arial" font-size="12" fill="#2c3e50">Widget Pro 3000</text>
  <text x="990" y="305" font-family="Arial" font-size="10" fill="#7f8c8d">42 units sold</text>
  <text x="1140" y="290" font-family="Arial" font-size="12" fill="#2c3e50" text-anchor="end">$1,260</text>
  
  <!-- Product 2 -->
  <rect x="980" y="320" width="180" height="40" fill="#f9f9f9" rx="3" />
  <text x="990" y="340" font-family="Arial" font-size="12" fill="#2c3e50">SuperGadget X</text>
  <text x="990" y="355" font-family="Arial" font-size="10" fill="#7f8c8d">38 units sold</text>
  <text x="1140" y="340" font-family="Arial" font-size="12" fill="#2c3e50" text-anchor="end">$950</text>
  
  <!-- Product 3 -->
  <rect x="980" y="370" width="180" height="40" fill="#f9f9f9" rx="3" />
  <text x="990" y="390" font-family="Arial" font-size="12" fill="#2c3e50">MegaTool Plus</text>
  <text x="990" y="405" font-family="Arial" font-size="10" fill="#7f8c8d">29 units sold</text>
  <text x="1140" y="390" font-family="Arial" font-size="12" fill="#2c3e50" text-anchor="end">$870</text>
  
  <!-- Product 4 -->
  <rect x="980" y="420" width="180" height="40" fill="#f9f9f9" rx="3" />
  <text x="990" y="440" font-family="Arial" font-size="12" fill="#2c3e50">UltraDevice 2</text>
  <text x="990" y="455" font-family="Arial" font-size="10" fill="#7f8c8d">24 units sold</text>
  <text x="1140" y="440" font-family="Arial" font-size="12" fill="#2c3e50" text-anchor="end">$720</text>
  
  <!-- Low Stock Alert Section -->
  <rect x="240" y="540" width="460" height="240" rx="5" fill="white" stroke="#e0e0e0" stroke-width="1" />
  <text x="260" y="570" font-family="Arial" font-size="16" font-weight="bold" fill="#2c3e50">Low Stock Alerts</text>
  
  <!-- Alert Items -->
  <rect x="260" y="590" width="420" height="40" fill="#fff9f9" rx="3" stroke="#ffcccc" stroke-width="1" />
  <circle cx="280" cy="610" r="10" fill="#e74c3c" />
  <text x="280" y="614" font-family="Arial" font-size="12" fill="white" text-anchor="middle">!</text>
  <text x="300" y="610" font-family="Arial" font-size="12" font-weight="bold" fill="#2c3e50">Widget Pro 3000</text>
  <text x="300" y="625" font-family="Arial" font-size="10" fill="#7f8c8d">Only 2 units left (Min: 10)</text>
  <rect x="580" y="600" width="80" height="20" rx="3" fill="#3498db" />
  <text x="620" y="614" font-family="Arial" font-size="10" fill="white" text-anchor="middle">Reorder</text>
  
  <rect x="260" y="640" width="420" height="40" fill="#fff9f9" rx="3" stroke="#ffcccc" stroke-width="1" />
  <circle cx="280" cy="660" r="10" fill="#e74c3c" />
  <text x="280" y="664" font-family="Arial" font-size="12" fill="white" text-anchor="middle">!</text>
  <text x="300" y="660" font-family="Arial" font-size="12" font-weight="bold" fill="#2c3e50">SuperGadget X</text>
  <text x="300" y="675" font-family="Arial" font-size="10" fill="#7f8c8d">Only 3 units left (Min: 15)</text>
  <rect x="580" y="650" width="80" height="20" rx="3" fill="#3498db" />
  <text x="620" y="664" font-family="Arial" font-size="10" fill="white" text-anchor="middle">Reorder</text>
  
  <rect x="260" y="690" width="420" height="40" fill="#fff9f9" rx="3" stroke="#ffcccc" stroke-width="1" />
  <circle cx="280" cy="710" r="10" fill="#e74c3c" />
  <text x="280" y="714" font-family="Arial" font-size="12" fill="white" text-anchor="middle">!</text>
  <text x="300" y="710" font-family="Arial" font-size="12" font-weight="bold" fill="#2c3e50">MegaTool Plus</text>
  <text x="300" y="725" font-family="Arial" font-size="10" fill="#7f8c8d">Only 5 units left (Min: 12)</text>
  <rect x="580" y="700" width="80" height="20" rx="3" fill="#3498db" />
  <text x="620" y="714" font-family="Arial" font-size="10" fill="white" text-anchor="middle">Reorder</text>
  
  <!-- Recent Orders -->
  <rect x="720" y="540" width="460" height="240" rx="5" fill="white" stroke="#e0e0e0" stroke-width="1" />
  <text x="740" y="570" font-family="Arial" font-size="16" font-weight="bold" fill="#2c3e50">Recent Orders</text>
  
  <!-- Table Headers -->
  <rect x="740" y="590" width="420" height="30" fill="#f5f7fa" />
  <text x="760" y="610" font-family="Arial" font-size="12" font-weight="bold" fill="#7f8c8d">Order ID</text>
  <text x="860" y="610" font-family="Arial" font-size="12" font-weight="bold" fill="#7f8c8d">Customer</text>
  <text x="980" y="610" font-family="Arial" font-size="12" font-weight="bold" fill="#7f8c8d">Date</text>
  <text x="1080" y="610" font-family="Arial" font-size="12" font-weight="bold" fill="#7f8c8d">Amount</text>
  
  <!-- Order 1 -->
  <line x1="740" y1="620" x2="1160" y2="620" stroke="#e0e0e0" stroke-width="1" />
  <text x="760" y="640" font-family="Arial" font-size="12" fill="#2c3e50">#ORD-7842</text>
  <text x="860" y="640" font-family="Arial" font-size="12" fill="#2c3e50">Jane Cooper</text>
  <text x="980" y="640" font-family="Arial" font-size="12" fill="#7f8c8d">Feb 14, 2024</text>
  <text x="1080" y="640" font-family="Arial" font-size="12" fill="#2c3e50">$238.40</text>
  
  <!-- Order 2 -->
  <line x1="740" y1="650" x2="1160" y2="650" stroke="#e0e0e0" stroke-width="1" />
  <text x="760" y="670" font-family="Arial" font-size="12" fill="#2c3e50">#ORD-7841</text>
  <text x="860" y="670" font-family="Arial" font-size="12" fill="#2c3e50">Robert Fox</text>
  <text x="980" y="670" font-family="Arial" font-size="12" fill="#7f8c8d">Feb 13, 2024</text>
  <text x="1080" y="670" font-family="Arial" font-size="12" fill="#2c3e50">$156.25</text>
  
  <!-- Order 3 -->
  <line x1="740" y1="680" x2="1160" y2="680" stroke="#e0e0e0" stroke-width="1" />
  <text x="760" y="700" font-family="Arial" font-size="12" fill="#2c3e50">#ORD-7840</text>
  <text x="860" y="700" font-family="Arial" font-size="12" fill="#2c3e50">Esther Howard</text>
  <text x="980" y="700" font-family="Arial" font-size="12" fill="#7f8c8d">Feb 13, 2024</text>
  <text x="1080" y="700" font-family="Arial" font-size="12" fill="#2c3e50">$325.00</text>
  
  <!-- Order 4 -->
  <line x1="740" y1="710" x2="1160" y2="710" stroke="#e0e0e0" stroke-width="1" />
  <text x="760" y="730" font-family="Arial" font-size="12" fill="#2c3e50">#ORD-7839</text>
  <text x="860" y="730" font-family="Arial" font-size="12" fill="#2c3e50">Cameron Wills</text>
  <text x="980" y="730" font-family="Arial" font-size="12" fill="#7f8c8d">Feb 12, 2024</text>
  <text x="1080" y="730" font-family="Arial" font-size="12" fill="#2c3e50">$189.99</text>
  
  <!-- View All link -->
  <text x="1100" y="760" font-family="Arial" font-size="12" fill="#3498db" text-anchor="end">View All Orders →</text>
</svg>
  